<svg width="227" height="85" viewBox="0 0 227 85" fill="none" xmlns="http://www.w3.org/2000/svg">
<path d="M55 68.36C51.4 68.36 48.136 67.64 45.208 66.2C42.28 64.712 39.76 62.744 37.648 60.296C35.536 57.848 33.904 55.088 32.752 52.016C31.6 48.896 31.024 45.704 31.024 42.44C31.024 39.032 31.624 35.792 32.824 32.72C34.024 29.6 35.704 26.84 37.864 24.44C40.072 21.992 42.64 20.072 45.568 18.68C48.496 17.24 51.664 16.52 55.072 16.52C58.624 16.52 61.864 17.264 64.792 18.752C67.72 20.24 70.24 22.232 72.352 24.728C74.512 27.224 76.144 30.008 77.248 33.08C78.4 36.152 78.976 39.296 78.976 42.512C78.976 45.968 78.328 49.304 77.032 52.52C75.784 55.688 74.056 58.472 71.848 60.872L77.824 68H72.856L69.04 63.464C67.072 65 64.888 66.2 62.488 67.064C60.136 67.928 57.64 68.36 55 68.36ZM55 63.824C57.16 63.824 59.152 63.488 60.976 62.816C62.848 62.096 64.528 61.112 66.016 59.864L59.608 52.304H64.576L68.752 57.2C70.432 55.184 71.704 52.88 72.568 50.288C73.48 47.696 73.936 45.08 73.936 42.44C73.936 39.656 73.48 36.992 72.568 34.448C71.656 31.904 70.336 29.624 68.608 27.608C66.928 25.592 64.936 24.008 62.632 22.856C60.328 21.656 57.784 21.056 55 21.056C52.12 21.056 49.504 21.68 47.152 22.928C44.848 24.128 42.856 25.76 41.176 27.824C39.544 29.84 38.272 32.12 37.36 34.664C36.496 37.208 36.064 39.8 36.064 42.44C36.064 45.224 36.52 47.888 37.432 50.432C38.344 52.976 39.64 55.256 41.32 57.272C43 59.288 44.992 60.896 47.296 62.096C49.648 63.248 52.216 63.824 55 63.824ZM101.402 16.88H105.65L126.89 68H121.562L114.938 52.016H91.9698L85.4178 68H80.0178L101.402 16.88ZM113.786 48.056L103.49 22.784L93.0498 48.056H113.786ZM132.778 68V16.88H154.378C156.586 16.88 158.602 17.336 160.426 18.248C162.298 19.16 163.906 20.408 165.25 21.992C166.594 23.528 167.626 25.256 168.346 27.176C169.114 29.048 169.498 30.968 169.498 32.936C169.498 35.432 169.018 37.76 168.058 39.92C167.146 42.08 165.826 43.904 164.098 45.392C162.37 46.88 160.378 47.84 158.122 48.272L170.65 68H164.962L152.938 49.136H137.818V68H132.778ZM137.818 44.672H154.522C156.538 44.672 158.29 44.12 159.778 43.016C161.266 41.864 162.418 40.4 163.234 38.624C164.05 36.848 164.458 34.952 164.458 32.936C164.458 30.872 163.978 28.976 163.018 27.248C162.106 25.472 160.858 24.056 159.274 23C157.69 21.896 155.962 21.344 154.09 21.344H137.818V44.672ZM198.969 68.36C195.369 68.36 192.105 67.64 189.177 66.2C186.249 64.712 183.729 62.744 181.617 60.296C179.505 57.848 177.873 55.088 176.721 52.016C175.569 48.896 174.993 45.704 174.993 42.44C174.993 39.032 175.593 35.792 176.793 32.72C177.993 29.6 179.673 26.84 181.833 24.44C184.041 21.992 186.609 20.072 189.537 18.68C192.465 17.24 195.633 16.52 199.041 16.52C202.593 16.52 205.833 17.264 208.761 18.752C211.689 20.24 214.209 22.232 216.321 24.728C218.481 27.224 220.113 30.008 221.217 33.08C222.369 36.152 222.945 39.296 222.945 42.512C222.945 45.92 222.345 49.184 221.145 52.304C219.945 55.376 218.265 58.136 216.105 60.584C213.945 62.984 211.401 64.88 208.473 66.272C205.545 67.664 202.377 68.36 198.969 68.36ZM180.033 42.44C180.033 45.224 180.489 47.888 181.401 50.432C182.313 52.976 183.609 55.256 185.289 57.272C186.969 59.288 188.961 60.896 191.265 62.096C193.617 63.248 196.185 63.824 198.969 63.824C201.897 63.824 204.513 63.224 206.817 62.024C209.169 60.776 211.161 59.12 212.793 57.056C214.473 54.992 215.745 52.712 216.609 50.216C217.473 47.672 217.905 45.08 217.905 42.44C217.905 39.656 217.449 36.992 216.537 34.448C215.625 31.904 214.305 29.624 212.577 27.608C210.897 25.592 208.905 24.008 206.601 22.856C204.297 21.704 201.753 21.128 198.969 21.128C196.089 21.128 193.473 21.728 191.121 22.928C188.817 24.128 186.825 25.76 185.145 27.824C183.513 29.84 182.241 32.12 181.329 34.664C180.465 37.208 180.033 39.8 180.033 42.44Z" fill="black"/>
<path d="M27 68.36C23.4 68.36 20.136 67.64 17.208 66.2C14.28 64.712 11.76 62.744 9.648 60.296C7.536 57.848 5.904 55.088 4.752 52.016C3.6 48.896 3.024 45.704 3.024 42.44C3.024 39.032 3.624 35.792 4.824 32.72C6.024 29.6 7.704 26.84 9.864 24.44C12.072 21.992 14.64 20.072 17.568 18.68C20.496 17.24 23.664 16.52 27.072 16.52C30.624 16.52 33.864 17.264 36.792 18.752C39.72 20.24 42.24 22.232 44.352 24.728C46.512 27.224 48.144 30.008 49.248 33.08C50.4 36.152 50.976 39.296 50.976 42.512C50.976 45.92 50.376 49.184 49.176 52.304C47.976 55.376 46.296 58.136 44.136 60.584C41.976 62.984 39.432 64.88 36.504 66.272C33.576 67.664 30.408 68.36 27 68.36ZM8.064 42.44C8.064 45.224 8.52 47.888 9.432 50.432C10.344 52.976 11.64 55.256 13.32 57.272C15 59.288 16.992 60.896 19.296 62.096C21.648 63.248 24.216 63.824 27 63.824C29.928 63.824 32.544 63.224 34.848 62.024C37.2 60.776 39.192 59.12 40.824 57.056C42.504 54.992 43.776 52.712 44.64 50.216C45.504 47.672 45.936 45.08 45.936 42.44C45.936 39.656 45.48 36.992 44.568 34.448C43.656 31.904 42.336 29.624 40.608 27.608C38.928 25.592 36.936 24.008 34.632 22.856C32.328 21.704 29.784 21.128 27 21.128C24.12 21.128 21.504 21.728 19.152 22.928C16.848 24.128 14.856 25.76 13.176 27.824C11.544 29.84 10.272 32.12 9.36 34.664C8.496 37.208 8.064 39.8 8.064 42.44Z" fill="black"/>
</svg>
